# xmcd
#
# Track frame offsets:
#	150
#	19620
#	32712
#	48410
#	61953
#	78895
#	94483
#	110345
#	126047
#	139200
#	156531
#	172768
#	184630
#
# Disc length: 2766 seconds
#
# Revision: 5
# Processed by: cddbd v1.5.2PL0 Copyright (c) Steve Scherf et al.
# Submitted via: EZCDAudioConverter 3.1.7.1
#
DISCID=a50acc0d
DTITLE=Various Artist - Mud Digger Volume 3
DYEAR=2012
DGENRE=Country
TTITLE0=Lenny Cooper - Mud Bog Paint Job
TTITLE1=Colt Ford - Drop  Zone Theme Song Featuring JJ Lawhorn
TTITLE2=The Lacs - Let Your Country Hang Out
TTITLE3=JB and The Moonshine Band - More Beer For Breakfast Featuring Colt For
TTITLE3=d
TTITLE4=Lo Cash Cowboys - C O U N T R Y ( Dance Remix ) Featuring Colt Ford
TTITLE5=JJ Lawhorn - Stompin Grounds 
TTITLE6=Bubba Sparxxx - Country Boy Coolin( Clean Version )
TTITLE7=Red Neck Social Club - My Truck
TTITLE8=Daniel Lee Band - Backwood Tobacco
TTITLE9=The Lacs - Kickin Up Mud Featuring Ira Dean
TTITLE10=Demun Jones - Lick
TTITLE11=Lauren Briant - My Side Of His Story
TTITLE12=Big Matt - Long Road
EXTD=
EXTT0=
EXTT1=
EXTT2=
EXTT3=
EXTT4=
EXTT5=
EXTT6=
EXTT7=
EXTT8=
EXTT9=
EXTT10=
EXTT11=
EXTT12=
PLAYORDER=
